<svg xmlns="http://www.w3.org/2000/svg" viewBox="0 0 145 60" width="145" height="60">
<path d="M 3 3 L 3 58 L 143 58 L 143 3 Z" fill="#e6e6e6" fill-rule="evenodd"/>
<path d="M 5 43 L 6 40 L 10 39 L 10 36 L 12 34 L 14 34 L 16 27 L 19 28 L 21 38 L 24 38 L 25 42 L 30 42 L 22 33 L 25 31 L 28 31 L 30 29 L 33 29 L 33 27 L 37 23 L 37 17 L 43 14 L 139 14 L 140 15 L 140 55 L 139 56 L 34 56 L 32 54 L 32 49 L 29 49 L 28 46 L 25 46 L 25 48 L 21 50 L 19 56 L 15 56 L 14 53 L 10 52 L 11 47 L 6 46 Z" fill="#e6e6e6" fill-rule="evenodd"/>
<path d="M 87 52 L 87 54 L 93 54 L 94 52 Z" fill="#f7bf3a" fill-rule="evenodd"/>
<path d="M 79 49 L 81 53 L 83 54 L 82 50 Z" fill="#f7bf3a" fill-rule="evenodd"/>
<path d="M 68 49 L 66 49 L 61 54 L 67 52 Z" fill="#f7bf3a" fill-rule="evenodd"/>
<path d="M 50 46 L 51 54 L 52 54 L 55 47 Z" fill="#f7bf3a" fill-rule="evenodd"/>
<path d="M 53 41 L 53 42 L 59 44 L 63 44 L 63 43 Z" fill="#f7bf3a" fill-rule="evenodd"/>
<path d="M 93 34 L 91 37 L 91 40 L 96 42 L 95 36 Z" fill="#f7bf3a" fill-rule="evenodd"/>
<path d="M 82 34 L 79 34 L 77 38 L 81 36 Z" fill="#f7bf3a" fill-rule="evenodd"/>
<path d="M 62 32 L 63 36 L 67 38 Z" fill="#f7bf3a" fill-rule="evenodd"/>
<path d="M 56 27 L 54 28 L 51 34 L 57 34 L 57 28 Z" fill="#f7bf3a" fill-rule="evenodd"/>
<path d="M 121 23 L 117 28 L 121 32 L 123 32 L 126 27 L 123 23 Z" fill="#f7bf3a" fill-rule="evenodd"/>
<path d="M 82 22 L 82 28 L 88 27 L 86 24 Z" fill="#f7bf3a" fill-rule="evenodd"/>
<path d="M 63 22 L 66 25 L 69 25 L 71 20 L 66 20 Z" fill="#f7bf3a" fill-rule="evenodd"/>
<path d="M 95 15 L 103 24 L 105 28 L 108 39 L 108 47 L 110 47 L 113 50 L 112 51 L 107 51 L 106 54 L 138 54 L 138 16 L 137 15 Z" fill="#f7bf3a" fill-rule="evenodd"/>
<path d="M 105 17 L 135 17 L 136 18 L 136 51 L 135 52 L 123 52 L 122 53 L 118 51 L 119 49 L 111 44 L 108 26 L 103 19 Z" fill="#f7bf3a" fill-rule="evenodd"/>
<path d="M 50 15 L 43 16 L 39 20 L 37 27 L 34 31 L 25 33 L 33 43 L 34 53 L 35 54 L 39 54 L 37 48 L 37 39 L 34 39 L 32 36 L 37 35 L 39 33 L 42 24 Z" fill="#f7bf3a" fill-rule="evenodd"/>
<path d="M 75 49 L 75 53 L 78 53 Z" fill="#050400" fill-rule="evenodd"/>
<path d="M 81 46 L 85 51 L 87 50 L 96 50 L 97 53 L 104 53 L 105 51 L 103 49 Z" fill="#050400" fill-rule="evenodd"/>
<path d="M 55 53 L 58 53 L 66 46 L 62 47 L 58 46 Z" fill="#050400" fill-rule="evenodd"/>
<path d="M 39 40 L 39 47 L 41 53 L 48 53 L 47 42 L 43 40 Z" fill="#050400" fill-rule="evenodd"/>
<path d="M 91 32 L 88 33 L 78 41 L 83 40 L 87 41 Z" fill="#050400" fill-rule="evenodd"/>
<path d="M 79 16 L 77 19 L 75 35 L 80 31 L 79 29 L 79 20 L 82 19 L 91 25 L 92 30 L 94 30 L 96 32 L 98 38 L 98 45 L 101 45 L 106 48 L 105 35 L 102 27 L 98 21 L 90 16 Z" fill="#050400" fill-rule="evenodd"/>
<path d="M 54 16 L 46 22 L 41 32 L 40 37 L 65 41 L 60 36 L 49 37 L 48 34 L 52 27 L 57 23 L 58 25 L 60 25 L 63 28 L 68 36 L 70 37 L 69 33 L 70 29 L 68 29 L 61 25 L 59 22 L 61 20 L 69 17 L 74 18 L 74 16 Z" fill="#050400" fill-rule="evenodd"/>
<path d="M 16 37 L 13 45 L 16 48 L 16 51 L 18 51 L 18 48 L 21 45 L 21 43 L 18 38 Z" fill="#483401" fill-rule="evenodd"/>
<path d="M 106 19 L 110 27 L 112 42 L 119 47 L 122 51 L 135 51 L 135 19 L 124 19 L 124 22 L 132 28 L 126 30 L 122 39 L 120 38 L 119 32 L 116 29 L 112 28 L 119 23 L 120 19 Z" fill="#483401" fill-rule="evenodd"/>
<path d="M 74 19 L 73 19 L 71 25 L 72 25 Z" fill="#483401" fill-rule="evenodd"/>
<path d="M 72 47 L 72 51 L 74 52 L 73 47 Z" fill="#bd890c" fill-rule="evenodd"/>
<path d="M 92 44 L 92 46 L 97 47 L 96 45 Z" fill="#bd890c" fill-rule="evenodd"/>
<path d="M 12 48 L 11 52 L 15 52 L 14 49 Z" fill="#e6e6e5" fill-rule="evenodd"/>
<path d="M 28 43 L 29 48 L 32 48 L 32 44 Z" fill="#e6e6e5" fill-rule="evenodd"/>
<path d="M 15 35 L 12 35 L 11 39 L 7 40 L 6 45 L 7 45 L 8 42 L 10 42 L 14 39 Z" fill="#e6e6e5" fill-rule="evenodd"/>
</svg>