<svg xmlns="http://www.w3.org/2000/svg" viewBox="0 0 145 60" width="145" height="60">
<path d="M 5 3 L 5 28 L 11 27 L 16 24 L 18 20 L 18 16 L 20 13 L 23 16 L 24 23 L 26 25 L 34 28 L 36 28 L 36 21 L 37 20 L 43 20 L 44 17 L 46 15 L 49 15 L 50 13 L 135 13 L 136 14 L 136 54 L 135 55 L 39 55 L 38 52 L 36 51 L 36 42 L 37 39 L 40 36 L 39 30 L 36 30 L 32 34 L 25 35 L 24 43 L 22 44 L 21 48 L 19 47 L 18 40 L 14 38 L 14 35 L 10 35 L 9 32 L 5 32 L 5 58 L 140 58 L 140 3 Z" fill="#e6e6e6" fill-rule="evenodd"/>
<path d="M 49 49 L 49 52 L 63 52 L 63 51 Z" fill="#dea00b" fill-rule="evenodd"/>
<path d="M 48 43 L 49 47 L 57 47 L 58 48 L 63 47 L 63 45 L 55 38 L 51 38 Z" fill="#dea00b" fill-rule="evenodd"/>
<path d="M 84 33 L 78 33 L 77 38 L 71 46 L 72 49 L 77 47 L 82 42 L 81 40 L 82 38 L 85 39 Z" fill="#dea00b" fill-rule="evenodd"/>
<path d="M 71 15 L 76 23 L 77 28 L 78 29 L 84 29 L 88 34 L 87 46 L 93 52 L 134 52 L 134 16 L 133 15 Z" fill="#dea00b" fill-rule="evenodd"/>
<path d="M 78 18 L 79 17 L 131 17 L 132 18 L 132 50 L 131 51 L 118 51 L 117 50 L 118 46 L 121 43 L 125 42 L 125 41 L 118 37 L 116 29 L 115 29 L 113 36 L 109 40 L 105 41 L 105 42 L 109 43 L 113 47 L 114 50 L 113 51 L 98 51 L 92 44 L 95 37 L 89 25 L 81 23 Z" fill="#dea00b" fill-rule="evenodd"/>
<path d="M 65 16 L 62 17 L 50 27 L 49 24 L 55 20 L 55 15 L 52 15 L 50 18 L 41 25 L 43 37 L 40 40 L 39 43 L 41 46 L 42 52 L 46 51 L 44 43 L 48 37 L 48 28 L 49 27 L 54 35 L 57 36 L 63 42 L 66 41 L 66 37 L 58 26 L 59 24 L 63 27 L 63 29 L 67 34 L 72 34 L 73 30 L 68 23 Z" fill="#dea00b" fill-rule="evenodd"/>
<path d="M 20 21 L 20 23 L 17 27 L 13 30 L 19 35 L 20 39 L 21 39 L 22 35 L 28 29 L 25 28 L 21 23 L 21 21 Z" fill="#513b01" fill-rule="evenodd"/>
<path d="M 79 18 L 81 22 L 88 23 L 90 25 L 96 37 L 93 44 L 98 50 L 113 50 L 112 47 L 109 44 L 102 41 L 107 40 L 112 36 L 115 27 L 117 29 L 119 37 L 124 40 L 129 41 L 121 44 L 119 46 L 118 50 L 131 50 L 131 18 Z" fill="#513b01" fill-rule="evenodd"/>
<path d="M 49 31 L 50 36 L 52 36 L 52 34 Z" fill="#100c00" fill-rule="evenodd"/>
<path d="M 66 15 L 75 31 L 72 36 L 67 36 L 68 40 L 65 44 L 64 53 L 90 53 L 90 51 L 86 47 L 87 39 L 75 50 L 72 51 L 70 49 L 69 46 L 71 42 L 76 37 L 77 29 L 71 18 Z" fill="#100c00" fill-rule="evenodd"/>
<path d="M 61 15 L 57 16 L 56 20 Z" fill="#100c00" fill-rule="evenodd"/>
<path d="M 37 45 L 37 51 L 39 51 L 39 47 Z" fill="#e6e6e5" fill-rule="evenodd"/>
<path d="M 32 31 L 29 31 L 26 34 L 32 33 Z" fill="#e6e6e5" fill-rule="evenodd"/>
<path d="M 10 31 L 10 34 L 14 34 L 15 38 L 18 38 L 17 35 L 14 32 Z" fill="#e6e6e5" fill-rule="evenodd"/>
<path d="M 42 21 L 37 21 L 37 29 L 39 29 L 38 26 Z" fill="#e6e6e5" fill-rule="evenodd"/>
<path d="M 48 16 L 46 16 L 44 20 Z" fill="#e6e6e5" fill-rule="evenodd"/>
</svg>