<svg xmlns="http://www.w3.org/2000/svg" viewBox="0 0 145 60" width="145" height="60">
<path d="M 63 58 L 63 59 L 138 59 L 138 58 Z" fill="#e6e6e6" fill-rule="evenodd"/>
<path d="M 7 59 L 58 59 L 58 55 L 47 55 L 34 41 L 31 24 L 29 22 L 29 17 L 30 16 L 66 16 L 67 17 L 66 19 L 57 22 L 60 26 L 62 26 L 63 23 L 80 23 L 81 26 L 89 27 L 90 30 L 93 31 L 93 24 L 96 23 L 96 17 L 97 16 L 138 16 L 138 0 L 7 0 L 7 48 L 13 47 L 18 43 L 19 36 L 21 35 L 22 30 L 24 32 L 26 43 L 29 46 L 35 47 L 38 49 L 37 51 L 29 52 L 25 58 L 19 58 L 17 55 L 14 55 L 12 51 L 7 51 Z" fill="#e6e6e6" fill-rule="evenodd"/>
<path d="M 64 38 L 64 40 L 70 46 L 69 52 L 72 56 L 90 56 L 90 52 L 87 46 L 83 42 L 76 39 Z" fill="#feb405" fill-rule="evenodd"/>
<path d="M 40 26 L 40 31 L 42 36 L 52 46 L 51 37 L 47 31 Z" fill="#feb405" fill-rule="evenodd"/>
<path d="M 123 22 L 122 27 L 117 32 L 119 32 L 122 35 L 123 41 L 124 41 L 125 36 L 131 31 L 126 28 L 124 22 Z" fill="#feb405" fill-rule="evenodd"/>
<path d="M 109 18 L 110 23 L 103 44 L 103 47 L 101 51 L 96 56 L 136 56 L 136 18 Z" fill="#feb405" fill-rule="evenodd"/>
<path d="M 114 19 L 122 19 L 123 20 L 133 19 L 134 20 L 134 53 L 133 54 L 104 54 L 103 53 L 105 50 L 108 35 L 110 32 L 112 22 Z" fill="#feb405" fill-rule="evenodd"/>
<path d="M 47 22 L 56 31 L 62 32 L 64 30 L 73 30 L 91 36 L 94 38 L 97 38 L 102 30 L 105 23 L 105 20 L 102 18 L 99 18 L 99 23 L 93 34 L 74 25 L 70 25 L 60 29 L 53 22 L 60 19 L 60 18 L 56 18 Z" fill="#feb405" fill-rule="evenodd"/>
<path d="M 32 18 L 32 23 L 36 40 L 49 53 L 61 53 L 63 56 L 66 56 L 59 43 L 59 41 L 58 41 L 57 48 L 53 51 L 48 49 L 45 46 L 36 32 L 34 21 L 36 18 Z" fill="#feb405" fill-rule="evenodd"/>
<path d="M 111 32 L 106 53 L 133 53 L 133 33 L 130 33 L 127 36 L 125 45 L 123 46 L 121 37 L 117 33 Z" fill="#191200" fill-rule="evenodd"/>
<path d="M 126 21 L 127 26 L 130 29 L 133 29 L 133 21 Z" fill="#191200" fill-rule="evenodd"/>
<path d="M 122 21 L 114 21 L 112 30 L 117 29 L 121 25 Z" fill="#191200" fill-rule="evenodd"/>
<path d="M 36 21 L 37 28 L 38 28 L 38 24 L 40 23 L 51 34 L 53 39 L 53 46 L 50 47 L 50 48 L 54 49 L 56 46 L 56 40 L 59 39 L 61 41 L 61 44 L 64 50 L 68 55 L 69 55 L 68 46 L 62 40 L 62 38 L 64 36 L 76 37 L 84 41 L 90 47 L 92 56 L 94 56 L 101 48 L 103 37 L 108 24 L 108 19 L 106 18 L 107 22 L 101 36 L 99 38 L 99 40 L 97 41 L 84 35 L 74 32 L 64 32 L 61 34 L 56 33 L 44 23 L 46 21 L 52 19 L 52 18 L 42 18 Z" fill="#191200" fill-rule="evenodd"/>
<path d="M 21 39 L 20 44 L 12 50 L 18 52 L 20 56 L 24 56 L 28 51 L 32 50 L 32 49 L 28 48 L 24 44 L 23 39 Z" fill="#bc8809" fill-rule="evenodd"/>
<path d="M 59 54 L 59 59 L 62 59 L 61 55 Z" fill="#e6e6e5" fill-rule="evenodd"/>
</svg>