<svg xmlns="http://www.w3.org/2000/svg" viewBox="0 0 145 60" width="145" height="60">
<path d="M 0 0 L 0 59 L 144 59 L 144 0 Z" fill="#e6e6e6" fill-rule="evenodd"/>
<path d="M 3 38 L 11 36 L 11 34 L 16 31 L 16 26 L 18 25 L 20 17 L 22 18 L 23 25 L 26 26 L 26 33 L 29 33 L 30 36 L 33 36 L 33 30 L 38 26 L 42 20 L 42 16 L 45 15 L 46 13 L 135 13 L 136 14 L 136 54 L 135 55 L 40 55 L 38 52 L 38 49 L 33 47 L 33 42 L 31 42 L 29 44 L 26 44 L 26 51 L 23 52 L 23 54 L 20 57 L 17 57 L 16 52 L 18 50 L 16 49 L 15 45 L 12 44 L 11 42 L 4 43 Z" fill="#e6e6e6" fill-rule="evenodd"/>
<path d="M 92 18 L 93 20 L 101 24 L 103 27 L 100 37 L 98 50 L 131 50 L 131 18 L 120 18 L 120 23 L 124 29 L 130 31 L 126 34 L 124 34 L 121 37 L 119 46 L 117 45 L 117 40 L 115 36 L 107 31 L 111 30 L 115 27 L 117 18 Z" fill="#1b1300" fill-rule="evenodd"/>
<path d="M 44 29 L 43 43 L 46 53 L 47 52 L 44 43 L 44 39 L 46 37 L 56 38 L 64 47 L 72 51 L 74 51 L 74 50 L 69 48 L 70 47 L 78 47 L 82 50 L 79 51 L 79 52 L 83 53 L 87 52 L 91 48 L 94 41 L 94 32 L 92 28 L 89 25 L 83 22 L 75 22 L 69 24 L 64 19 L 56 18 L 51 20 L 46 25 Z" fill="#1b1300" fill-rule="evenodd"/>
<path d="M 89 35 L 91 37 L 91 41 L 87 46 L 85 46 L 83 41 Z" fill="#1b1300" fill-rule="evenodd"/>
<path d="M 46 39 L 48 53 L 73 53 L 73 52 L 70 52 L 63 48 L 58 43 L 57 40 L 52 38 Z" fill="#fbb81b" fill-rule="evenodd"/>
<path d="M 89 37 L 86 39 L 85 44 L 87 44 L 90 40 Z" fill="#fbb81b" fill-rule="evenodd"/>
<path d="M 118 22 L 117 27 L 112 32 L 114 32 L 118 38 L 118 41 L 119 41 L 120 35 L 125 31 L 120 28 L 119 22 Z" fill="#fbb81b" fill-rule="evenodd"/>
<path d="M 38 28 L 38 47 L 41 53 L 44 53 L 41 43 L 41 32 L 43 26 L 50 19 L 57 16 L 63 17 L 69 22 L 77 20 L 85 21 L 89 23 L 94 28 L 96 32 L 96 41 L 93 48 L 89 53 L 134 53 L 134 15 L 48 15 Z" fill="#fbb81b" fill-rule="evenodd"/>
<path d="M 87 18 L 90 16 L 117 16 L 118 17 L 120 16 L 131 16 L 133 18 L 133 50 L 132 51 L 97 51 L 96 49 L 99 38 L 100 26 Z" fill="#fbb81b" fill-rule="evenodd"/>
<path d="M 20 26 L 17 34 L 14 37 L 11 38 L 11 40 L 14 41 L 18 45 L 19 50 L 21 52 L 21 49 L 24 43 L 26 41 L 30 40 L 30 38 L 28 38 L 23 33 L 21 29 L 21 26 Z" fill="#a87907" fill-rule="evenodd"/>
<path d="M 36 30 L 35 39 L 36 44 L 37 44 L 37 30 Z" fill="#e8dec6" fill-rule="evenodd"/>
<path d="M 17 52 L 17 56 L 20 56 Z" fill="#e6e6e5" fill-rule="evenodd"/>
<path d="M 25 47 L 24 47 L 23 51 L 25 51 Z" fill="#e6e6e5" fill-rule="evenodd"/>
<path d="M 34 40 L 34 47 L 36 47 L 35 40 Z" fill="#e6e6e5" fill-rule="evenodd"/>
<path d="M 4 40 L 4 42 L 7 42 L 7 40 Z" fill="#e6e6e5" fill-rule="evenodd"/>
<path d="M 34 30 L 34 37 L 35 37 L 35 30 Z" fill="#e6e6e5" fill-rule="evenodd"/>
<path d="M 23 26 L 24 31 L 25 31 L 25 26 Z" fill="#e6e6e5" fill-rule="evenodd"/>
</svg>