<svg xmlns="http://www.w3.org/2000/svg" viewBox="0 0 145 60" width="145" height="60">
<path d="M 34 29 L 32 29 L 31 34 L 29 36 L 27 36 L 25 44 L 28 43 L 29 40 L 34 37 Z" fill="#e6e6e6" fill-rule="evenodd"/>
<path d="M 5 5 L 5 55 L 141 55 L 141 5 Z" fill="#e6e6e6" fill-rule="evenodd"/>
<path d="M 6 25 L 12 23 L 13 21 L 18 20 L 21 8 L 25 8 L 27 10 L 27 17 L 31 18 L 31 22 L 34 22 L 34 18 L 38 17 L 42 11 L 49 11 L 50 10 L 138 10 L 139 11 L 139 51 L 138 52 L 32 52 L 29 49 L 26 49 L 25 46 L 23 47 L 21 46 L 20 37 L 16 35 L 16 31 L 13 31 L 12 29 L 7 28 Z" fill="#e6e6e6" fill-rule="evenodd"/>
<path d="M 62 46 L 62 48 L 65 50 L 64 47 Z" fill="#e8b12d" fill-rule="evenodd"/>
<path d="M 85 41 L 81 41 L 74 45 L 68 45 L 67 47 L 70 50 L 74 50 L 78 46 L 81 46 Z" fill="#e8b12d" fill-rule="evenodd"/>
<path d="M 78 32 L 72 31 L 61 35 L 50 35 L 48 38 L 50 37 L 61 37 L 74 33 L 78 33 Z" fill="#e8b12d" fill-rule="evenodd"/>
<path d="M 67 11 L 67 12 L 69 12 L 76 16 L 73 18 L 74 22 L 79 22 L 82 19 L 92 25 L 107 30 L 109 32 L 91 50 L 137 50 L 137 11 Z" fill="#e8b12d" fill-rule="evenodd"/>
<path d="M 84 15 L 85 14 L 134 14 L 135 15 L 135 47 L 134 48 L 127 48 L 126 47 L 132 42 L 130 42 L 125 37 L 125 33 L 124 33 L 123 38 L 119 42 L 116 42 L 116 43 L 120 44 L 123 47 L 122 48 L 101 48 L 100 47 L 105 41 L 121 28 L 101 24 Z" fill="#e8b12d" fill-rule="evenodd"/>
<path d="M 60 11 L 53 11 L 50 13 L 43 13 L 35 24 L 37 26 L 35 27 L 35 38 L 29 45 L 32 49 L 39 50 L 36 45 L 39 40 L 40 27 L 43 20 L 46 17 L 52 19 Z" fill="#e8b12d" fill-rule="evenodd"/>
<path d="M 128 47 L 134 47 L 134 44 L 130 44 Z" fill="#402e01" fill-rule="evenodd"/>
<path d="M 87 15 L 90 18 L 101 23 L 120 26 L 122 28 L 121 30 L 106 41 L 102 47 L 121 47 L 120 45 L 116 44 L 115 42 L 119 41 L 122 38 L 124 32 L 126 33 L 126 37 L 130 41 L 134 42 L 134 15 Z" fill="#402e01" fill-rule="evenodd"/>
<path d="M 22 15 L 22 18 L 20 22 L 16 25 L 14 25 L 14 26 L 20 30 L 22 34 L 22 37 L 24 37 L 24 34 L 26 30 L 31 27 L 31 25 L 26 22 L 24 18 L 24 15 Z" fill="#402e01" fill-rule="evenodd"/>
<path d="M 40 46 L 41 48 L 59 48 L 60 44 L 73 43 L 75 39 L 82 39 L 83 34 L 79 34 L 74 36 L 66 37 L 64 39 L 49 40 L 47 42 L 42 41 L 51 32 L 59 33 L 61 30 L 75 29 L 84 31 L 85 34 L 89 35 L 89 44 L 83 46 L 82 48 L 90 48 L 106 32 L 103 32 L 93 28 L 86 23 L 73 24 L 70 21 L 70 19 L 72 17 L 71 15 L 60 14 L 52 23 L 48 23 L 47 20 L 44 22 L 44 26 L 42 27 L 42 35 L 41 36 Z" fill="#000000" fill-rule="evenodd"/>
<path d="M 27 44 L 26 48 L 29 48 L 28 44 Z" fill="#e6e6e5" fill-rule="evenodd"/>
<path d="M 30 30 L 26 33 L 24 42 L 25 42 L 26 36 L 30 34 Z" fill="#e6e6e5" fill-rule="evenodd"/>
<path d="M 10 27 L 13 30 L 17 31 L 17 35 L 20 35 L 19 32 L 15 28 Z" fill="#e6e6e5" fill-rule="evenodd"/>
<path d="M 38 18 L 35 18 L 35 22 L 32 23 L 32 24 L 34 24 Z" fill="#e6e6e5" fill-rule="evenodd"/>
<path d="M 26 18 L 30 22 L 30 18 Z" fill="#e6e6e5" fill-rule="evenodd"/>
<path d="M 21 9 L 21 12 L 23 10 L 25 13 L 25 16 L 26 16 L 26 10 Z" fill="#e6e6e5" fill-rule="evenodd"/>
<path d="M 83 36 L 83 39 L 85 37 L 88 38 L 88 35 Z" fill="#010000" fill-rule="evenodd"/>
<path d="M 48 20 L 48 22 L 52 22 L 52 21 Z" fill="#010000" fill-rule="evenodd"/>
</svg>